<?xml version="1.0" encoding="UTF-8" standalone="no"?>
<svg
   xmlns:dc="http://purl.org/dc/elements/1.1/"
   xmlns:cc="http://creativecommons.org/ns#"
   xmlns:rdf="http://www.w3.org/1999/02/22-rdf-syntax-ns#"
   xmlns:svg="http://www.w3.org/2000/svg"
   xmlns="http://www.w3.org/2000/svg"
   xmlns:sodipodi="http://sodipodi.sourceforge.net/DTD/sodipodi-0.dtd"
   xmlns:inkscape="http://www.inkscape.org/namespaces/inkscape"
   inkscape:version="1.0 (4035a4f, 2020-05-01)"
   height="496"
   width="496"
   sodipodi:docname="pause.svg"
   id="svg835"
   version="1.1"
   viewBox="0 0 496 496"
   role="img"
   class="svg-inline--fa fa-pause-circle fa-w-16"
   data-icon="pause-circle"
   data-prefix="fas"
   focusable="false"
   aria-hidden="true">
  <metadata
     id="metadata841">
    <rdf:RDF>
      <cc:Work
         rdf:about="">
        <dc:format>image/svg+xml</dc:format>
        <dc:type
           rdf:resource="http://purl.org/dc/dcmitype/StillImage" />
        <dc:title></dc:title>
      </cc:Work>
    </rdf:RDF>
  </metadata>
  <defs
     id="defs839" />
  <sodipodi:namedview
     inkscape:current-layer="svg835"
     inkscape:window-maximized="0"
     inkscape:window-y="23"
     inkscape:window-x="0"
     inkscape:cy="248"
     inkscape:cx="248"
     inkscape:zoom="1.3046875"
     fit-margin-bottom="0"
     fit-margin-right="0"
     fit-margin-left="0"
     fit-margin-top="0"
     inkscape:pagecheckerboard="true"
     showgrid="false"
     id="namedview837"
     inkscape:window-height="1101"
     inkscape:window-width="1881"
     inkscape:pageshadow="2"
     inkscape:pageopacity="0"
     guidetolerance="10"
     gridtolerance="10"
     objecttolerance="10"
     borderopacity="1"
     bordercolor="#666666"
     pagecolor="#ffffff" />
  <path
     style="fill:#ffffff;fill-opacity:1"
     id="path833"
     d="M 248,0 C 111,0 0,111 0,248 0,385 111,496 248,496 385,496 496,385 496,248 496,111 385,0 248,0 Z m -16,328 c 0,8.8 -7.2,16 -16,16 h -48 c -8.8,0 -16,-7.2 -16,-16 V 168 c 0,-8.8 7.2,-16 16,-16 h 48 c 8.8,0 16,7.2 16,16 z m 112,0 c 0,8.8 -7.2,16 -16,16 h -48 c -8.8,0 -16,-7.2 -16,-16 V 168 c 0,-8.8 7.2,-16 16,-16 h 48 c 8.8,0 16,7.2 16,16 z"
     fill="currentColor" />
</svg>
