<?xml version="1.0" encoding="UTF-8" standalone="no"?>
<svg
   xmlns:dc="http://purl.org/dc/elements/1.1/"
   xmlns:cc="http://creativecommons.org/ns#"
   xmlns:rdf="http://www.w3.org/1999/02/22-rdf-syntax-ns#"
   xmlns:svg="http://www.w3.org/2000/svg"
   xmlns="http://www.w3.org/2000/svg"
   xmlns:sodipodi="http://sodipodi.sourceforge.net/DTD/sodipodi-0.dtd"
   xmlns:inkscape="http://www.inkscape.org/namespaces/inkscape"
   aria-hidden="true"
   focusable="false"
   data-prefix="fas"
   data-icon="skull"
   class="svg-inline--fa fa-skull fa-w-16"
   role="img"
   viewBox="0 0 512 512"
   version="1.1"
   id="svg835"
   sodipodi:docname="skull.svg"
   inkscape:version="1.0.1 (c497b03c, 2020-09-10)">
  <metadata
     id="metadata841">
    <rdf:RDF>
      <cc:Work
         rdf:about="">
        <dc:format>image/svg+xml</dc:format>
        <dc:type
           rdf:resource="http://purl.org/dc/dcmitype/StillImage" />
        <dc:title></dc:title>
      </cc:Work>
    </rdf:RDF>
  </metadata>
  <defs
     id="defs839" />
  <sodipodi:namedview
     pagecolor="#ffffff"
     bordercolor="#666666"
     borderopacity="1"
     objecttolerance="10"
     gridtolerance="10"
     guidetolerance="10"
     inkscape:pageopacity="0"
     inkscape:pageshadow="2"
     inkscape:window-width="1812"
     inkscape:window-height="1010"
     id="namedview837"
     showgrid="false"
     inkscape:pagecheckerboard="true"
     inkscape:zoom="1.3046875"
     inkscape:cx="256"
     inkscape:cy="256"
     inkscape:window-x="408"
     inkscape:window-y="308"
     inkscape:window-maximized="0"
     inkscape:current-layer="svg835" />
  <path
     fill="currentColor"
     d="M256 0C114.6 0 0 100.3 0 224c0 70.1 36.9 132.6 94.5 173.7 9.6 6.9 15.2 18.1 13.5 29.9l-9.4 66.2c-1.4 9.6 6 18.2 15.7 18.2H192v-56c0-4.4 3.6-8 8-8h16c4.4 0 8 3.6 8 8v56h64v-56c0-4.4 3.6-8 8-8h16c4.4 0 8 3.6 8 8v56h77.7c9.7 0 17.1-8.6 15.7-18.2l-9.4-66.2c-1.7-11.7 3.8-23 13.5-29.9C475.1 356.6 512 294.1 512 224 512 100.3 397.4 0 256 0zm-96 320c-35.3 0-64-28.7-64-64s28.7-64 64-64 64 28.7 64 64-28.7 64-64 64zm192 0c-35.3 0-64-28.7-64-64s28.7-64 64-64 64 28.7 64 64-28.7 64-64 64z"
     id="path833"
     style="fill:#ffffff;fill-opacity:1" />
</svg>
