<?xml version="1.0" encoding="UTF-8" standalone="no"?>
<svg
   xmlns:dc="http://purl.org/dc/elements/1.1/"
   xmlns:cc="http://creativecommons.org/ns#"
   xmlns:rdf="http://www.w3.org/1999/02/22-rdf-syntax-ns#"
   xmlns:svg="http://www.w3.org/2000/svg"
   xmlns="http://www.w3.org/2000/svg"
   xmlns:sodipodi="http://sodipodi.sourceforge.net/DTD/sodipodi-0.dtd"
   xmlns:inkscape="http://www.inkscape.org/namespaces/inkscape"
   inkscape:version="1.0 (4035a4f, 2020-05-01)"
   sodipodi:docname="title-screen.svg"
   id="svg909"
   viewBox="0 0 54.064652 71.873219"
   version="1.1"
   height="71.873215mm"
   width="54.064651mm">
  <defs
     id="defs913" />
  <sodipodi:namedview
     inkscape:current-layer="svg909"
     inkscape:window-maximized="0"
     inkscape:window-y="23"
     inkscape:window-x="0"
     inkscape:cy="244.10379"
     inkscape:cx="102.47708"
     inkscape:zoom="3.3281549"
     showgrid="false"
     id="namedview911"
     inkscape:window-height="749"
     inkscape:window-width="1585"
     inkscape:pageshadow="2"
     inkscape:pageopacity="0"
     guidetolerance="10"
     gridtolerance="10"
     objecttolerance="10"
     borderopacity="1"
     bordercolor="#666666"
     pagecolor="#ffffff" />
  <metadata
     id="metadata833">
    <rdf:RDF>
      <cc:Work
         rdf:about="">
        <dc:format>image/svg+xml</dc:format>
        <dc:type
           rdf:resource="http://purl.org/dc/dcmitype/StillImage" />
        <dc:title />
      </cc:Work>
    </rdf:RDF>
  </metadata>
  <g
     id="g879"
     transform="translate(-79.247772,-102.00366)">
    <g
       id="g841"
       stroke="#000000"
       fill="#34cfff">
      <ellipse
         id="ellipse835"
         stroke-width="1.139"
         ry="7.9819999"
         rx="2.4028001"
         cy="143.99001"
         cx="120.37" />
      <ellipse
         id="ellipse837"
         stroke-width="1.139"
         ry="7.9819999"
         rx="2.4028001"
         cy="143.45"
         cx="93.841003" />
      <ellipse
         id="ellipse839"
         stroke-width="1.003"
         ry="6.2458"
         rx="4.7796001"
         cy="110.85"
         cx="-147.31"
         transform="matrix(-0.98922,-0.14642,-0.25407,0.96718,0,0)" />
    </g>
    <g
       id="g851">
      <ellipse
         id="ellipse843"
         fill="#ffe5ab"
         ry="3.3408999"
         rx="3.3074999"
         cy="128.12"
         cx="-117.73"
         transform="scale(-1,1)" />
      <ellipse
         id="ellipse845"
         stroke-width="1.003"
         stroke="#000000"
         fill="#34cfff"
         ry="6.2458"
         rx="4.7796001"
         cy="142.19"
         cx="60.573002"
         transform="matrix(0.98922,-0.14642,0.25407,0.96718,0,0)" />
      <ellipse
         id="ellipse847"
         fill="#ffe5ab"
         ry="3.3408999"
         rx="3.3074999"
         cy="127.98"
         cx="95.878998" />
      <circle
         id="circle849"
         stroke="#000000"
         fill="#34cfff"
         r="15.635"
         cy="139.34"
         cx="107.2" />
    </g>
    <ellipse
       id="ellipse853"
       stroke-width="3.5357"
       opacity="0.99"
       fill="#ffffff"
       ry="3.4031999"
       rx="3.5239999"
       cy="134.49001"
       cx="113.16" />
    <ellipse
       id="ellipse855"
       stroke-width="0.7834"
       opacity="0.99"
       ry="0.81274998"
       rx="0.72442001"
       cy="134.36"
       cx="113.02" />
    <ellipse
       id="ellipse857"
       stroke-width="1.1255"
       opacity="0.99"
       ry="1.5951999"
       rx="0.76182002"
       cy="142.39999"
       cx="107.14" />
    <g
       id="g865"
       stroke-width="0.2845"
       fill="none">
      <path
         id="path859"
         stroke="#fffdfd"
         d="m 108.15,140.94 c 3.1583,-1.8394 9.399,-0.0634 10.864,1.5857" />
      <path
         id="path861"
         stroke="#ffffff"
         d="m 108.2,142.21 c 2.6065,-0.85523 9.1203,1.7646 10.738,3.774" />
      <path
         id="path863"
         stroke="#ffffff"
         d="m 108.2,143.61 c 3.3628,-0.17224 7.9691,2.7468 8.8431,5.328" />
    </g>
    <ellipse
       id="ellipse867"
       stroke-width="3.5357"
       opacity="0.99"
       fill="#ffffff"
       ry="3.4031999"
       rx="3.5239999"
       cy="134.42999"
       cx="101.31" />
    <ellipse
       id="ellipse869"
       stroke-width="0.7834"
       opacity="0.99"
       ry="0.81274998"
       rx="0.72442001"
       cy="134.3"
       cx="101.17" />
    <g
       id="g877"
       stroke-width="0.2845"
       fill="none">
      <path
         id="path871"
         stroke="#fffdfd"
         d="m 106.05,140.95 c -3.1583,-1.8394 -9.399,-0.0634 -10.864,1.5857" />
      <path
         id="path873"
         stroke="#ffffff"
         d="m 106,142.22 c -2.6065,-0.85522 -9.1203,1.7646 -10.738,3.774" />
      <path
         id="path875"
         stroke="#ffffff"
         d="m 106,143.62 c -3.3628,-0.17226 -7.9691,2.7468 -8.8431,5.3279" />
    </g>
  </g>
  <g
     style="fill:#ffffff;fill-opacity:1;stroke:#000000;stroke-width:0.79375;stroke-miterlimit:4;stroke-dasharray:none;stroke-opacity:1"
     id="g893"
     aria-label="MARBLE"
     stroke-width=".26458"
     transform="translate(-79.247772,-102.00366)">
    <path
       style="fill:#ffffff;fill-opacity:1;stroke:#000000;stroke-width:0.79375;stroke-miterlimit:4;stroke-dasharray:none;stroke-opacity:1"
       id="path881"
       d="m 79.809,115.4 2.2033,-2.1521 4.0711,2.467 -2.3743,-4.1244 2.1959,-2.1448 5.2935,5.4195 -1.3678,1.336 -4.0369,-4.133 2.9759,5.1693 -1.2384,1.2096 -5.0942,-3.1003 4.0369,4.133 -1.3715,1.3396 z" />
    <path
       style="fill:#ffffff;fill-opacity:1;stroke:#000000;stroke-width:0.79375;stroke-miterlimit:4;stroke-dasharray:none;stroke-opacity:1"
       id="path883"
       d="m 96.254,111 -2.4146,1.1314 0.19839,1.2881 -2.1666,1.0152 -0.63613,-8.0681 2.3116,-1.0832 5.7928,5.6518 -2.218,1.0393 z m -1.1396,-1.2751 -1.9136,-2.1108 0.40216,2.819 z" />
    <path
       style="fill:#ffffff;fill-opacity:1;stroke:#000000;stroke-width:0.79375;stroke-miterlimit:4;stroke-dasharray:none;stroke-opacity:1"
       id="path885"
       d="m 100.17,110.82 -1.0375,-7.5044 3.8648,-0.5343 q 1.075,-0.14861 1.6687,-0.0429 0.59367,0.10573 1.0111,0.55926 0.41673,0.44842 0.5158,1.1651 0.0863,0.62451 -0.11686,1.1169 -0.20391,0.48726 -0.63081,0.8332 -0.27213,0.22021 -0.77287,0.40942 0.43374,0.0809 0.64225,0.19292 0.14071,0.0744 0.42305,0.34321 0.28747,0.26804 0.39201,0.42053 l 1.4218,2.0206 -2.6209,0.36233 -1.5558,-2.122 q -0.29703,-0.4128 -0.49972,-0.52041 -0.27489,-0.13937 -0.59226,-0.0955 l -0.20476,0.0283 0.42107,3.0458 z m 1.712,-4.7857 0.97771,-0.13517 q 0.15869,-0.0219 0.60012,-0.1873 0.22399,-0.0779 0.34113,-0.28713 0.12227,-0.20993 0.0883,-0.45563 -0.0502,-0.36345 -0.30749,-0.52612 -0.25724,-0.16268 -0.89199,-0.0749 l -1.0187,0.14083 z" />
    <path
       style="fill:#ffffff;fill-opacity:1;stroke:#000000;stroke-width:0.79375;stroke-miterlimit:4;stroke-dasharray:none;stroke-opacity:1"
       id="path887"
       d="m 109.59,102.46 4.3234,0.71536 q 1.0808,0.17884 1.5684,0.80949 0.49263,0.63149 0.36187,1.4217 -0.10966,0.66278 -0.60108,1.0686 -0.32761,0.27054 -0.8882,0.36635 0.77347,0.32702 1.0723,0.86359 0.30476,0.53231 0.18666,1.2461 -0.0962,0.58121 -0.44315,1.0004 -0.34697,0.41923 -0.86073,0.61183 -0.31844,0.12016 -0.9174,0.0996 -0.79691,-0.0271 -1.0518,-0.0693 l -3.9869,-0.65968 z m 1.8449,3.317 1.0044,0.16618 q 0.54042,0.0894 0.77982,-0.0595 0.24534,-0.1532 0.30355,-0.50499 0.054,-0.32629 -0.12977,-0.54526 -0.17866,-0.21812 -0.70379,-0.30501 l -1.0197,-0.16872 z m -0.48591,2.9366 1.1777,0.19487 q 0.5965,0.0987 0.87581,-0.0698 0.28015,-0.17364 0.3392,-0.53052 0.0548,-0.33139 -0.15699,-0.57071 -0.20587,-0.24358 -0.81257,-0.34397 l -1.1726,-0.19402 z" />
    <path
       style="fill:#ffffff;fill-opacity:1;stroke:#000000;stroke-width:0.79375;stroke-miterlimit:4;stroke-dasharray:none;stroke-opacity:1"
       id="path889"
       d="m 119.69,104.74 2.1119,1.0098 -2.4632,5.1516 3.2961,1.576 -0.8047,1.683 -5.4081,-2.5858 z" />
    <path
       style="fill:#ffffff;fill-opacity:1;stroke:#000000;stroke-width:0.79375;stroke-miterlimit:4;stroke-dasharray:none;stroke-opacity:1"
       id="path891"
       d="m 127.7,109.06 4.7405,4.1091 -1.0594,1.2222 -2.9677,-2.5724 -0.78865,0.90982 2.7529,2.3863 -1.012,1.1675 -2.7529,-2.3863 -0.9782,1.1285 3.0536,2.6469 -1.1237,1.2964 -4.8264,-4.1836 z" />
  </g>
  <g
     style="fill:#ffffff;fill-opacity:1;stroke:#000000;stroke-width:0.79375;stroke-miterlimit:4;stroke-dasharray:none;stroke-opacity:1"
     id="g905"
     aria-label="MOUSE"
     stroke-width=".26458"
     transform="translate(-79.247772,-102.00366)">
    <path
       style="fill:#ffffff;fill-opacity:1;stroke:#000000;stroke-width:0.79375;stroke-miterlimit:4;stroke-dasharray:none;stroke-opacity:1"
       id="path895"
       d="m 91.694,161.68 2.8116,1.2573 -0.79674,4.6932 2.962,-3.7248 2.8021,1.2531 -3.0926,6.9157 -1.7454,-0.78055 2.3585,-5.2741 -3.7124,4.6686 -1.5803,-0.7067 1.0093,-5.8774 -2.3585,5.2741 -1.7502,-0.78266 z" />
    <path
       style="fill:#ffffff;fill-opacity:1;stroke:#000000;stroke-width:0.79375;stroke-miterlimit:4;stroke-dasharray:none;stroke-opacity:1"
       id="path897"
       d="m 98.176,168.66 q 0.29303,-1.8319 1.4768,-2.6892 1.1838,-0.8573 3.0055,-0.5659 1.8676,0.29874 2.7172,1.4656 0.85036,1.1618 0.56141,2.9681 -0.20977,1.3114 -0.78839,2.0824 -0.5727,0.76666 -1.4846,1.1022 -0.90603,0.3313 -2.1511,0.13213 -1.2655,-0.20242 -2.0328,-0.73859 -0.76216,-0.53535 -1.138,-1.4904 -0.37584,-0.95505 -0.16602,-2.2664 z m 2.3099,0.37996 q -0.18121,1.1328 0.15804,1.6947 0.34435,0.56272 1.069,0.67863 0.745,0.11917 1.2308,-0.30029 0.48576,-0.41947 0.68656,-1.6747 0.16896,-1.0563 -0.18212,-1.6096 -0.34517,-0.55761 -1.0749,-0.67434 -0.69907,-0.11182 -1.2018,0.3154 -0.5027,0.42722 -0.68554,1.5702 z" />
    <path
       style="fill:#ffffff;fill-opacity:1;stroke:#000000;stroke-width:0.79375;stroke-miterlimit:4;stroke-dasharray:none;stroke-opacity:1"
       id="path899"
       d="m 110.89,165.67 2.3271,-0.2013 0.38925,4.4997 q 0.0579,0.66929 -0.10152,1.2848 -0.15472,0.60988 -0.56389,1.0965 -0.40446,0.48107 -0.87797,0.70357 -0.65776,0.31106 -1.6102,0.39346 -0.55087,0.0477 -1.2114,0.027 -0.65538,-0.0211 -1.1126,-0.20979 -0.45766,-0.19382 -0.85971,-0.58437 -0.39691,-0.39099 -0.56952,-0.82732 -0.27858,-0.70207 -0.32668,-1.2581 l -0.38925,-4.4997 2.3271,-0.2013 0.39861,4.6078 q 0.0534,0.61781 0.42352,0.93851 0.37478,0.3151 0.9823,0.26255 0.60236,-0.0521 0.91276,-0.4213 0.3151,-0.37478 0.26077,-1.0029 z" />
    <path
       style="fill:#ffffff;fill-opacity:1;stroke:#000000;stroke-width:0.79375;stroke-miterlimit:4;stroke-dasharray:none;stroke-opacity:1"
       id="path901"
       d="m 114.25,170.38 2.0757,-0.81943 q 0.23611,0.49386 0.53512,0.69572 0.48592,0.32599 1.125,0.11886 0.47684,-0.15455 0.66077,-0.45861 0.18725,-0.31058 0.0917,-0.60553 -0.0908,-0.2802 -0.4083,-0.42175 -0.3175,-0.14155 -1.2759,-0.0482 -1.5717,0.14543 -2.3728,-0.19789 -0.80608,-0.34172 -1.0801,-1.1872 -0.18004,-0.5555 -0.0198,-1.1506 0.16353,-0.60166 0.71669,-1.0906 0.55649,-0.49544 1.6822,-0.86029 1.3814,-0.44771 2.2713,-0.16576 0.89325,0.27545 1.3942,1.3517 l -2.0592,0.80322 q -0.24131,-0.45958 -0.58338,-0.59317 -0.33715,-0.13518 -0.80908,0.0178 -0.38835,0.12587 -0.53082,0.35674 -0.14405,0.22595 -0.0676,0.46191 0.0558,0.17206 0.2626,0.25713 0.20352,0.0916 0.83325,0.0233 1.562,-0.15859 2.2964,-0.0381 0.73771,0.114 1.1774,0.49843 0.44458,0.38284 0.63577,0.97274 0.22465,0.69314 0.0308,1.4024 -0.19384,0.70926 -0.78328,1.2371 -0.59104,0.52293 -1.6381,0.8623 -1.8385,0.59588 -2.7758,0.11742 -0.93732,-0.47845 -1.3844,-1.5395 z" />
    <path
       style="fill:#ffffff;fill-opacity:1;stroke:#000000;stroke-width:0.79375;stroke-miterlimit:4;stroke-dasharray:none;stroke-opacity:1"
       id="path903"
       d="m 118.85,163.57 5.4284,-3.1447 0.81079,1.3996 -3.3983,1.9687 0.60356,1.0419 3.1524,-1.8262 0.77453,1.337 -3.1524,1.8262 0.74862,1.2923 3.4967,-2.0257 0.86,1.4845 -5.5268,3.2017 z" />
  </g>
  <path
     id="path923"
     d="M 7.3567621,20.417073 C 15.894996,9.0753491 32.075866,6.7948996 43.41759,15.333135 54.759314,23.871369 57.040934,40.050682 48.5027,51.392405 39.964466,62.734128 23.783979,65.017311 12.442255,56.479076 1.1005308,47.940842 -1.1814714,31.758795 7.3567621,20.417073 Z m 3.4562639,2.601931 c -7.1320356,9.473806 -5.2426394,22.871775 4.231162,30.003806 9.473809,7.132039 22.870213,5.24147 30.002248,-4.232336 7.132036,-9.473807 5.243031,-22.869036 -4.230779,-30.001073 -9.473801,-7.132033 -22.870595,-5.244203 -30.002631,4.229603 z"
     style="color:#000000;font-style:normal;font-variant:normal;font-weight:normal;font-stretch:normal;font-size:medium;line-height:normal;font-family:sans-serif;font-variant-ligatures:normal;font-variant-position:normal;font-variant-caps:normal;font-variant-numeric:normal;font-variant-alternates:normal;font-variant-east-asian:normal;font-feature-settings:normal;font-variation-settings:normal;text-indent:0;text-align:start;text-decoration:none;text-decoration-line:none;text-decoration-style:solid;text-decoration-color:#000000;letter-spacing:normal;word-spacing:normal;text-transform:none;writing-mode:lr-tb;direction:ltr;text-orientation:mixed;dominant-baseline:auto;baseline-shift:baseline;text-anchor:start;white-space:normal;shape-padding:0;shape-margin:0;inline-size:0;clip-rule:nonzero;display:inline;overflow:visible;visibility:visible;opacity:1;isolation:auto;mix-blend-mode:normal;color-interpolation:sRGB;color-interpolation-filters:linearRGB;solid-color:#000000;solid-opacity:1;vector-effect:none;fill:#ffffff;fill-opacity:1;fill-rule:nonzero;stroke:#000000;stroke-width:0.79375;stroke-linecap:butt;stroke-linejoin:miter;stroke-miterlimit:4;stroke-dasharray:none;stroke-dashoffset:0;stroke-opacity:1;color-rendering:auto;image-rendering:auto;shape-rendering:auto;text-rendering:auto;enable-background:accumulate;stop-color:#000000;stop-opacity:1" />
</svg>
